<svg width="25" height="25" viewBox="0 0 25 25" fill="none" xmlns="http://www.w3.org/2000/svg">
<g clip-path="url(#clip0_16_77)">
<path fill-rule="evenodd" clip-rule="evenodd" d="M2.60413 9.37502C2.60374 8.99713 2.74031 8.6319 2.98856 8.34699C3.2368 8.06207 3.57988 7.87677 3.95427 7.82541C4.32865 7.77406 4.70897 7.86012 5.02476 8.06766C5.34056 8.2752 5.57045 8.59015 5.67184 8.95419C7.69996 15.7271 17.2948 15.7281 19.327 8.9594C19.3842 8.76144 19.4798 8.57672 19.6086 8.41589C19.7374 8.25506 19.8967 8.12128 20.0774 8.02226C20.2581 7.92324 20.4566 7.86094 20.6614 7.83893C20.8663 7.81692 21.0734 7.83564 21.271 7.89402C21.4686 7.95239 21.6527 8.04927 21.8127 8.17908C21.9727 8.30889 22.1055 8.46906 22.2033 8.65037C22.3012 8.83168 22.3622 9.03056 22.3829 9.23555C22.4036 9.44054 22.3836 9.6476 22.3239 9.84481C21.9679 11.061 21.3952 12.203 20.6333 13.2156L21.6333 14.2156C21.7825 14.3599 21.9014 14.5323 21.9832 14.723C22.065 14.9137 22.108 15.1187 22.1097 15.3262C22.1114 15.5336 22.0718 15.7394 21.9931 15.9314C21.9145 16.1234 21.7984 16.2978 21.6516 16.4444C21.5048 16.591 21.3303 16.707 21.1383 16.7854C20.9462 16.8639 20.7404 16.9034 20.533 16.9015C20.3255 16.8996 20.1205 16.8564 19.9299 16.7744C19.7393 16.6924 19.5669 16.5733 19.4229 16.424L18.3708 15.3719C17.8239 15.7464 17.2412 16.0657 16.6312 16.325L16.8843 17.2688C16.9804 17.6652 16.9176 18.0835 16.7093 18.4342C16.5011 18.7849 16.164 19.0404 15.77 19.1459C15.376 19.2514 14.9564 19.1987 14.6007 18.999C14.2451 18.7993 13.9816 18.4684 13.8666 18.0771L13.6052 17.1031C12.8708 17.1792 12.1291 17.1792 11.3948 17.1031L11.1343 18.0771C11.0271 18.4774 10.7653 18.8188 10.4065 19.026C10.0476 19.2333 9.62111 19.2895 9.22079 19.1823C8.82048 19.0751 8.47915 18.8133 8.27188 18.4544C8.06462 18.0956 8.00839 17.6691 8.11559 17.2688L8.36767 16.324C7.75808 16.0649 7.17572 15.746 6.62913 15.3719L5.57704 16.424C5.43298 16.5733 5.26062 16.6924 5.07003 16.7744C4.87944 16.8564 4.67443 16.8996 4.46696 16.9015C4.25949 16.9034 4.05373 16.8639 3.86167 16.7854C3.6696 16.707 3.49509 16.591 3.34832 16.4444C3.20154 16.2978 3.08544 16.1234 3.00679 15.9314C2.92813 15.7394 2.8885 15.5336 2.8902 15.3262C2.89191 15.1187 2.93491 14.9137 3.01671 14.723C3.09851 14.5323 3.21746 14.3599 3.36663 14.2156L4.36663 13.2156C3.60648 12.2047 3.03484 11.0649 2.67913 9.85106C2.62966 9.69722 2.60436 9.53663 2.60413 9.37502Z" fill="#C04A59"/>
</g>
<defs>
<clipPath id="clip0_16_77">
<rect width="25" height="25" fill="white"/>
</clipPath>
</defs>
</svg>
