<svg width="1rem" height="1rem" viewBox="0 0 35 35" fill="none" xmlns="http://www.w3.org/2000/svg">
<path d="M17.5 24.7916C16.7264 24.7916 15.9846 24.4844 15.4376 23.9374C14.8906 23.3904 14.5833 22.6485 14.5833 21.875C14.5833 20.2562 15.8812 18.9583 17.5 18.9583C18.2735 18.9583 19.0154 19.2656 19.5624 19.8126C20.1094 20.3596 20.4166 21.1014 20.4166 21.875C20.4166 22.6485 20.1094 23.3904 19.5624 23.9374C19.0154 24.4844 18.2735 24.7916 17.5 24.7916ZM26.25 29.1666V14.5833H8.74998V29.1666H26.25ZM26.25 11.6666C27.0235 11.6666 27.7654 11.9739 28.3124 12.5209C28.8594 13.0679 29.1666 13.8098 29.1666 14.5833V29.1666C29.1666 29.9402 28.8594 30.6821 28.3124 31.229C27.7654 31.776 27.0235 32.0833 26.25 32.0833H8.74998C7.97643 32.0833 7.23457 31.776 6.68758 31.229C6.1406 30.6821 5.83331 29.9402 5.83331 29.1666V14.5833C5.83331 12.9646 7.13123 11.6666 8.74998 11.6666H10.2083V8.74998C10.2083 6.81611 10.9765 4.96145 12.344 3.59399C13.7114 2.22654 15.5661 1.45831 17.5 1.45831C18.4575 1.45831 19.4057 1.64692 20.2904 2.01336C21.175 2.3798 21.9789 2.9169 22.656 3.59399C23.3331 4.27109 23.8702 5.07491 24.2366 5.95958C24.603 6.84425 24.7916 7.79242 24.7916 8.74998V11.6666H26.25ZM17.5 4.37498C16.3397 4.37498 15.2269 4.83592 14.4064 5.65639C13.5859 6.47686 13.125 7.58966 13.125 8.74998V11.6666H21.875V8.74998C21.875 7.58966 21.414 6.47686 20.5936 5.65639C19.7731 4.83592 18.6603 4.37498 17.5 4.37498Z" fill="currentColor"/>
</svg>
