<svg width="1rem" height="1rem" viewBox="0 0 33 33" fill="none" xmlns="http://www.w3.org/2000/svg">
<path d="M16.5 30.25C8.90588 30.25 2.75 24.0941 2.75 16.5C2.75 8.90588 8.90588 2.75 16.5 2.75C24.0941 2.75 30.25 8.90588 30.25 16.5C30.25 24.0941 24.0941 30.25 16.5 30.25ZM16.5 27.5C19.4174 27.5 22.2153 26.3411 24.2782 24.2782C26.3411 22.2153 27.5 19.4174 27.5 16.5C27.5 13.5826 26.3411 10.7847 24.2782 8.72183C22.2153 6.65893 19.4174 5.5 16.5 5.5C13.5826 5.5 10.7847 6.65893 8.72183 8.72183C6.65893 10.7847 5.5 13.5826 5.5 16.5C5.5 19.4174 6.65893 22.2153 8.72183 24.2782C10.7847 26.3411 13.5826 27.5 16.5 27.5ZM9.625 16.5H12.375C12.375 17.594 12.8096 18.6432 13.5832 19.4168C14.3568 20.1904 15.406 20.625 16.5 20.625C17.594 20.625 18.6432 20.1904 19.4168 19.4168C20.1904 18.6432 20.625 17.594 20.625 16.5H23.375C23.375 18.3234 22.6507 20.072 21.3614 21.3614C20.072 22.6507 18.3234 23.375 16.5 23.375C14.6766 23.375 12.928 22.6507 11.6386 21.3614C10.3493 20.072 9.625 18.3234 9.625 16.5Z" fill="currentColor"/>
</svg>
